<mxfile host="app.diagrams.net" agent="Mozilla/5.0 (Windows NT 10.0; Win64; x64) AppleWebKit/537.36 (KHTML, like Gecko) Chrome/132.0.0.0 Safari/537.36 OPR/117.0.0.0" version="26.2.13">
  <diagram name="PÃ¡gina-1" id="ZVbLHbPf1G3Dx51DqPmI">
    <mxGraphModel dx="1374" dy="1912" grid="1" gridSize="10" guides="1" tooltips="1" connect="1" arrows="1" fold="1" page="1" pageScale="1" pageWidth="827" pageHeight="1169" math="0" shadow="0">
      <root>
        <mxCell id="0" />
        <mxCell id="1" parent="0" />
        <mxCell id="y7Lo6_qIOmENLzMQSb0R-10" value="User" style="swimlane;fontStyle=1;align=center;verticalAlign=top;childLayout=stackLayout;horizontal=1;startSize=26;horizontalStack=0;resizeParent=1;resizeParentMax=0;resizeLast=0;collapsible=1;marginBottom=0;whiteSpace=wrap;html=1;" vertex="1" parent="1">
          <mxGeometry x="40" y="150" width="160" height="86" as="geometry" />
        </mxCell>
        <mxCell id="y7Lo6_qIOmENLzMQSb0R-11" value="+ field: type" style="text;strokeColor=none;fillColor=none;align=left;verticalAlign=top;spacingLeft=4;spacingRight=4;overflow=hidden;rotatable=0;points=[[0,0.5],[1,0.5]];portConstraint=eastwest;whiteSpace=wrap;html=1;" vertex="1" parent="y7Lo6_qIOmENLzMQSb0R-10">
          <mxGeometry y="26" width="160" height="26" as="geometry" />
        </mxCell>
        <mxCell id="y7Lo6_qIOmENLzMQSb0R-12" value="" style="line;strokeWidth=1;fillColor=none;align=left;verticalAlign=middle;spacingTop=-1;spacingLeft=3;spacingRight=3;rotatable=0;labelPosition=right;points=[];portConstraint=eastwest;strokeColor=inherit;" vertex="1" parent="y7Lo6_qIOmENLzMQSb0R-10">
          <mxGeometry y="52" width="160" height="8" as="geometry" />
        </mxCell>
        <mxCell id="y7Lo6_qIOmENLzMQSb0R-13" value="+ method(type): type" style="text;strokeColor=none;fillColor=none;align=left;verticalAlign=top;spacingLeft=4;spacingRight=4;overflow=hidden;rotatable=0;points=[[0,0.5],[1,0.5]];portConstraint=eastwest;whiteSpace=wrap;html=1;" vertex="1" parent="y7Lo6_qIOmENLzMQSb0R-10">
          <mxGeometry y="60" width="160" height="26" as="geometry" />
        </mxCell>
        <mxCell id="y7Lo6_qIOmENLzMQSb0R-14" value="Order" style="swimlane;fontStyle=1;align=center;verticalAlign=top;childLayout=stackLayout;horizontal=1;startSize=26;horizontalStack=0;resizeParent=1;resizeParentMax=0;resizeLast=0;collapsible=1;marginBottom=0;whiteSpace=wrap;html=1;" vertex="1" parent="1">
          <mxGeometry x="320" y="410" width="160" height="86" as="geometry" />
        </mxCell>
        <mxCell id="y7Lo6_qIOmENLzMQSb0R-15" value="+ field: type" style="text;strokeColor=none;fillColor=none;align=left;verticalAlign=top;spacingLeft=4;spacingRight=4;overflow=hidden;rotatable=0;points=[[0,0.5],[1,0.5]];portConstraint=eastwest;whiteSpace=wrap;html=1;" vertex="1" parent="y7Lo6_qIOmENLzMQSb0R-14">
          <mxGeometry y="26" width="160" height="26" as="geometry" />
        </mxCell>
        <mxCell id="y7Lo6_qIOmENLzMQSb0R-16" value="" style="line;strokeWidth=1;fillColor=none;align=left;verticalAlign=middle;spacingTop=-1;spacingLeft=3;spacingRight=3;rotatable=0;labelPosition=right;points=[];portConstraint=eastwest;strokeColor=inherit;" vertex="1" parent="y7Lo6_qIOmENLzMQSb0R-14">
          <mxGeometry y="52" width="160" height="8" as="geometry" />
        </mxCell>
        <mxCell id="y7Lo6_qIOmENLzMQSb0R-17" value="+ method(type): type" style="text;strokeColor=none;fillColor=none;align=left;verticalAlign=top;spacingLeft=4;spacingRight=4;overflow=hidden;rotatable=0;points=[[0,0.5],[1,0.5]];portConstraint=eastwest;whiteSpace=wrap;html=1;" vertex="1" parent="y7Lo6_qIOmENLzMQSb0R-14">
          <mxGeometry y="60" width="160" height="26" as="geometry" />
        </mxCell>
        <mxCell id="y7Lo6_qIOmENLzMQSb0R-18" value="Adress" style="swimlane;fontStyle=1;align=center;verticalAlign=top;childLayout=stackLayout;horizontal=1;startSize=26;horizontalStack=0;resizeParent=1;resizeParentMax=0;resizeLast=0;collapsible=1;marginBottom=0;whiteSpace=wrap;html=1;" vertex="1" parent="1">
          <mxGeometry x="40" y="410" width="160" height="86" as="geometry" />
        </mxCell>
        <mxCell id="y7Lo6_qIOmENLzMQSb0R-19" value="+ field: type" style="text;strokeColor=none;fillColor=none;align=left;verticalAlign=top;spacingLeft=4;spacingRight=4;overflow=hidden;rotatable=0;points=[[0,0.5],[1,0.5]];portConstraint=eastwest;whiteSpace=wrap;html=1;" vertex="1" parent="y7Lo6_qIOmENLzMQSb0R-18">
          <mxGeometry y="26" width="160" height="26" as="geometry" />
        </mxCell>
        <mxCell id="y7Lo6_qIOmENLzMQSb0R-20" value="" style="line;strokeWidth=1;fillColor=none;align=left;verticalAlign=middle;spacingTop=-1;spacingLeft=3;spacingRight=3;rotatable=0;labelPosition=right;points=[];portConstraint=eastwest;strokeColor=inherit;" vertex="1" parent="y7Lo6_qIOmENLzMQSb0R-18">
          <mxGeometry y="52" width="160" height="8" as="geometry" />
        </mxCell>
        <mxCell id="y7Lo6_qIOmENLzMQSb0R-21" value="+ method(type): type" style="text;strokeColor=none;fillColor=none;align=left;verticalAlign=top;spacingLeft=4;spacingRight=4;overflow=hidden;rotatable=0;points=[[0,0.5],[1,0.5]];portConstraint=eastwest;whiteSpace=wrap;html=1;" vertex="1" parent="y7Lo6_qIOmENLzMQSb0R-18">
          <mxGeometry y="60" width="160" height="26" as="geometry" />
        </mxCell>
        <mxCell id="y7Lo6_qIOmENLzMQSb0R-22" value="Favourite_Product" style="swimlane;fontStyle=1;align=center;verticalAlign=top;childLayout=stackLayout;horizontal=1;startSize=26;horizontalStack=0;resizeParent=1;resizeParentMax=0;resizeLast=0;collapsible=1;marginBottom=0;whiteSpace=wrap;html=1;" vertex="1" parent="1">
          <mxGeometry x="550" y="-140" width="160" height="86" as="geometry" />
        </mxCell>
        <mxCell id="y7Lo6_qIOmENLzMQSb0R-23" value="+ field: type" style="text;strokeColor=none;fillColor=none;align=left;verticalAlign=top;spacingLeft=4;spacingRight=4;overflow=hidden;rotatable=0;points=[[0,0.5],[1,0.5]];portConstraint=eastwest;whiteSpace=wrap;html=1;" vertex="1" parent="y7Lo6_qIOmENLzMQSb0R-22">
          <mxGeometry y="26" width="160" height="26" as="geometry" />
        </mxCell>
        <mxCell id="y7Lo6_qIOmENLzMQSb0R-24" value="" style="line;strokeWidth=1;fillColor=none;align=left;verticalAlign=middle;spacingTop=-1;spacingLeft=3;spacingRight=3;rotatable=0;labelPosition=right;points=[];portConstraint=eastwest;strokeColor=inherit;" vertex="1" parent="y7Lo6_qIOmENLzMQSb0R-22">
          <mxGeometry y="52" width="160" height="8" as="geometry" />
        </mxCell>
        <mxCell id="y7Lo6_qIOmENLzMQSb0R-25" value="+ method(type): type" style="text;strokeColor=none;fillColor=none;align=left;verticalAlign=top;spacingLeft=4;spacingRight=4;overflow=hidden;rotatable=0;points=[[0,0.5],[1,0.5]];portConstraint=eastwest;whiteSpace=wrap;html=1;" vertex="1" parent="y7Lo6_qIOmENLzMQSb0R-22">
          <mxGeometry y="60" width="160" height="26" as="geometry" />
        </mxCell>
        <mxCell id="y7Lo6_qIOmENLzMQSb0R-26" value="Catalog" style="swimlane;fontStyle=1;align=center;verticalAlign=top;childLayout=stackLayout;horizontal=1;startSize=26;horizontalStack=0;resizeParent=1;resizeParentMax=0;resizeLast=0;collapsible=1;marginBottom=0;whiteSpace=wrap;html=1;" vertex="1" parent="1">
          <mxGeometry x="340" y="150" width="160" height="86" as="geometry" />
        </mxCell>
        <mxCell id="y7Lo6_qIOmENLzMQSb0R-27" value="+ field: type" style="text;strokeColor=none;fillColor=none;align=left;verticalAlign=top;spacingLeft=4;spacingRight=4;overflow=hidden;rotatable=0;points=[[0,0.5],[1,0.5]];portConstraint=eastwest;whiteSpace=wrap;html=1;" vertex="1" parent="y7Lo6_qIOmENLzMQSb0R-26">
          <mxGeometry y="26" width="160" height="26" as="geometry" />
        </mxCell>
        <mxCell id="y7Lo6_qIOmENLzMQSb0R-28" value="" style="line;strokeWidth=1;fillColor=none;align=left;verticalAlign=middle;spacingTop=-1;spacingLeft=3;spacingRight=3;rotatable=0;labelPosition=right;points=[];portConstraint=eastwest;strokeColor=inherit;" vertex="1" parent="y7Lo6_qIOmENLzMQSb0R-26">
          <mxGeometry y="52" width="160" height="8" as="geometry" />
        </mxCell>
        <mxCell id="y7Lo6_qIOmENLzMQSb0R-29" value="+ method(type): type" style="text;strokeColor=none;fillColor=none;align=left;verticalAlign=top;spacingLeft=4;spacingRight=4;overflow=hidden;rotatable=0;points=[[0,0.5],[1,0.5]];portConstraint=eastwest;whiteSpace=wrap;html=1;" vertex="1" parent="y7Lo6_qIOmENLzMQSb0R-26">
          <mxGeometry y="60" width="160" height="26" as="geometry" />
        </mxCell>
        <mxCell id="y7Lo6_qIOmENLzMQSb0R-30" value="Product" style="swimlane;fontStyle=1;align=center;verticalAlign=top;childLayout=stackLayout;horizontal=1;startSize=26;horizontalStack=0;resizeParent=1;resizeParentMax=0;resizeLast=0;collapsible=1;marginBottom=0;whiteSpace=wrap;html=1;" vertex="1" parent="1">
          <mxGeometry x="690" y="150" width="160" height="86" as="geometry" />
        </mxCell>
        <mxCell id="y7Lo6_qIOmENLzMQSb0R-31" value="+ field: type" style="text;strokeColor=none;fillColor=none;align=left;verticalAlign=top;spacingLeft=4;spacingRight=4;overflow=hidden;rotatable=0;points=[[0,0.5],[1,0.5]];portConstraint=eastwest;whiteSpace=wrap;html=1;" vertex="1" parent="y7Lo6_qIOmENLzMQSb0R-30">
          <mxGeometry y="26" width="160" height="26" as="geometry" />
        </mxCell>
        <mxCell id="y7Lo6_qIOmENLzMQSb0R-32" value="" style="line;strokeWidth=1;fillColor=none;align=left;verticalAlign=middle;spacingTop=-1;spacingLeft=3;spacingRight=3;rotatable=0;labelPosition=right;points=[];portConstraint=eastwest;strokeColor=inherit;" vertex="1" parent="y7Lo6_qIOmENLzMQSb0R-30">
          <mxGeometry y="52" width="160" height="8" as="geometry" />
        </mxCell>
        <mxCell id="y7Lo6_qIOmENLzMQSb0R-33" value="+ method(type): type" style="text;strokeColor=none;fillColor=none;align=left;verticalAlign=top;spacingLeft=4;spacingRight=4;overflow=hidden;rotatable=0;points=[[0,0.5],[1,0.5]];portConstraint=eastwest;whiteSpace=wrap;html=1;" vertex="1" parent="y7Lo6_qIOmENLzMQSb0R-30">
          <mxGeometry y="60" width="160" height="26" as="geometry" />
        </mxCell>
        <mxCell id="y7Lo6_qIOmENLzMQSb0R-34" value="Order_has_category" style="swimlane;fontStyle=1;align=center;verticalAlign=top;childLayout=stackLayout;horizontal=1;startSize=26;horizontalStack=0;resizeParent=1;resizeParentMax=0;resizeLast=0;collapsible=1;marginBottom=0;whiteSpace=wrap;html=1;" vertex="1" parent="1">
          <mxGeometry x="530" y="290" width="160" height="86" as="geometry" />
        </mxCell>
        <mxCell id="y7Lo6_qIOmENLzMQSb0R-35" value="+ field: type" style="text;strokeColor=none;fillColor=none;align=left;verticalAlign=top;spacingLeft=4;spacingRight=4;overflow=hidden;rotatable=0;points=[[0,0.5],[1,0.5]];portConstraint=eastwest;whiteSpace=wrap;html=1;" vertex="1" parent="y7Lo6_qIOmENLzMQSb0R-34">
          <mxGeometry y="26" width="160" height="26" as="geometry" />
        </mxCell>
        <mxCell id="y7Lo6_qIOmENLzMQSb0R-36" value="" style="line;strokeWidth=1;fillColor=none;align=left;verticalAlign=middle;spacingTop=-1;spacingLeft=3;spacingRight=3;rotatable=0;labelPosition=right;points=[];portConstraint=eastwest;strokeColor=inherit;" vertex="1" parent="y7Lo6_qIOmENLzMQSb0R-34">
          <mxGeometry y="52" width="160" height="8" as="geometry" />
        </mxCell>
        <mxCell id="y7Lo6_qIOmENLzMQSb0R-37" value="+ method(type): type" style="text;strokeColor=none;fillColor=none;align=left;verticalAlign=top;spacingLeft=4;spacingRight=4;overflow=hidden;rotatable=0;points=[[0,0.5],[1,0.5]];portConstraint=eastwest;whiteSpace=wrap;html=1;" vertex="1" parent="y7Lo6_qIOmENLzMQSb0R-34">
          <mxGeometry y="60" width="160" height="26" as="geometry" />
        </mxCell>
        <mxCell id="y7Lo6_qIOmENLzMQSb0R-38" value="Disccount" style="swimlane;fontStyle=1;align=center;verticalAlign=top;childLayout=stackLayout;horizontal=1;startSize=26;horizontalStack=0;resizeParent=1;resizeParentMax=0;resizeLast=0;collapsible=1;marginBottom=0;whiteSpace=wrap;html=1;" vertex="1" parent="1">
          <mxGeometry x="690" y="410" width="160" height="86" as="geometry" />
        </mxCell>
        <mxCell id="y7Lo6_qIOmENLzMQSb0R-39" value="+ field: type" style="text;strokeColor=none;fillColor=none;align=left;verticalAlign=top;spacingLeft=4;spacingRight=4;overflow=hidden;rotatable=0;points=[[0,0.5],[1,0.5]];portConstraint=eastwest;whiteSpace=wrap;html=1;" vertex="1" parent="y7Lo6_qIOmENLzMQSb0R-38">
          <mxGeometry y="26" width="160" height="26" as="geometry" />
        </mxCell>
        <mxCell id="y7Lo6_qIOmENLzMQSb0R-40" value="" style="line;strokeWidth=1;fillColor=none;align=left;verticalAlign=middle;spacingTop=-1;spacingLeft=3;spacingRight=3;rotatable=0;labelPosition=right;points=[];portConstraint=eastwest;strokeColor=inherit;" vertex="1" parent="y7Lo6_qIOmENLzMQSb0R-38">
          <mxGeometry y="52" width="160" height="8" as="geometry" />
        </mxCell>
        <mxCell id="y7Lo6_qIOmENLzMQSb0R-41" value="+ method(type): type" style="text;strokeColor=none;fillColor=none;align=left;verticalAlign=top;spacingLeft=4;spacingRight=4;overflow=hidden;rotatable=0;points=[[0,0.5],[1,0.5]];portConstraint=eastwest;whiteSpace=wrap;html=1;" vertex="1" parent="y7Lo6_qIOmENLzMQSb0R-38">
          <mxGeometry y="60" width="160" height="26" as="geometry" />
        </mxCell>
        <mxCell id="y7Lo6_qIOmENLzMQSb0R-42" value="Category_has_product" style="swimlane;fontStyle=1;align=center;verticalAlign=top;childLayout=stackLayout;horizontal=1;startSize=26;horizontalStack=0;resizeParent=1;resizeParentMax=0;resizeLast=0;collapsible=1;marginBottom=0;whiteSpace=wrap;html=1;" vertex="1" parent="1">
          <mxGeometry x="960" y="150" width="160" height="86" as="geometry" />
        </mxCell>
        <mxCell id="y7Lo6_qIOmENLzMQSb0R-43" value="+ field: type" style="text;strokeColor=none;fillColor=none;align=left;verticalAlign=top;spacingLeft=4;spacingRight=4;overflow=hidden;rotatable=0;points=[[0,0.5],[1,0.5]];portConstraint=eastwest;whiteSpace=wrap;html=1;" vertex="1" parent="y7Lo6_qIOmENLzMQSb0R-42">
          <mxGeometry y="26" width="160" height="26" as="geometry" />
        </mxCell>
        <mxCell id="y7Lo6_qIOmENLzMQSb0R-44" value="" style="line;strokeWidth=1;fillColor=none;align=left;verticalAlign=middle;spacingTop=-1;spacingLeft=3;spacingRight=3;rotatable=0;labelPosition=right;points=[];portConstraint=eastwest;strokeColor=inherit;" vertex="1" parent="y7Lo6_qIOmENLzMQSb0R-42">
          <mxGeometry y="52" width="160" height="8" as="geometry" />
        </mxCell>
        <mxCell id="y7Lo6_qIOmENLzMQSb0R-45" value="+ method(type): type" style="text;strokeColor=none;fillColor=none;align=left;verticalAlign=top;spacingLeft=4;spacingRight=4;overflow=hidden;rotatable=0;points=[[0,0.5],[1,0.5]];portConstraint=eastwest;whiteSpace=wrap;html=1;" vertex="1" parent="y7Lo6_qIOmENLzMQSb0R-42">
          <mxGeometry y="60" width="160" height="26" as="geometry" />
        </mxCell>
        <mxCell id="y7Lo6_qIOmENLzMQSb0R-46" value="Category" style="swimlane;fontStyle=1;align=center;verticalAlign=top;childLayout=stackLayout;horizontal=1;startSize=26;horizontalStack=0;resizeParent=1;resizeParentMax=0;resizeLast=0;collapsible=1;marginBottom=0;whiteSpace=wrap;html=1;" vertex="1" parent="1">
          <mxGeometry x="960" y="410" width="160" height="86" as="geometry" />
        </mxCell>
        <mxCell id="y7Lo6_qIOmENLzMQSb0R-47" value="+ field: type" style="text;strokeColor=none;fillColor=none;align=left;verticalAlign=top;spacingLeft=4;spacingRight=4;overflow=hidden;rotatable=0;points=[[0,0.5],[1,0.5]];portConstraint=eastwest;whiteSpace=wrap;html=1;" vertex="1" parent="y7Lo6_qIOmENLzMQSb0R-46">
          <mxGeometry y="26" width="160" height="26" as="geometry" />
        </mxCell>
        <mxCell id="y7Lo6_qIOmENLzMQSb0R-48" value="" style="line;strokeWidth=1;fillColor=none;align=left;verticalAlign=middle;spacingTop=-1;spacingLeft=3;spacingRight=3;rotatable=0;labelPosition=right;points=[];portConstraint=eastwest;strokeColor=inherit;" vertex="1" parent="y7Lo6_qIOmENLzMQSb0R-46">
          <mxGeometry y="52" width="160" height="8" as="geometry" />
        </mxCell>
        <mxCell id="y7Lo6_qIOmENLzMQSb0R-49" value="+ method(type): type" style="text;strokeColor=none;fillColor=none;align=left;verticalAlign=top;spacingLeft=4;spacingRight=4;overflow=hidden;rotatable=0;points=[[0,0.5],[1,0.5]];portConstraint=eastwest;whiteSpace=wrap;html=1;" vertex="1" parent="y7Lo6_qIOmENLzMQSb0R-46">
          <mxGeometry y="60" width="160" height="26" as="geometry" />
        </mxCell>
        <mxCell id="y7Lo6_qIOmENLzMQSb0R-50" value="Catalog_has_Product" style="swimlane;fontStyle=1;align=center;verticalAlign=top;childLayout=stackLayout;horizontal=1;startSize=26;horizontalStack=0;resizeParent=1;resizeParentMax=0;resizeLast=0;collapsible=1;marginBottom=0;whiteSpace=wrap;html=1;" vertex="1" parent="1">
          <mxGeometry x="520" y="30" width="160" height="86" as="geometry" />
        </mxCell>
        <mxCell id="y7Lo6_qIOmENLzMQSb0R-51" value="+ field: type" style="text;strokeColor=none;fillColor=none;align=left;verticalAlign=top;spacingLeft=4;spacingRight=4;overflow=hidden;rotatable=0;points=[[0,0.5],[1,0.5]];portConstraint=eastwest;whiteSpace=wrap;html=1;" vertex="1" parent="y7Lo6_qIOmENLzMQSb0R-50">
          <mxGeometry y="26" width="160" height="26" as="geometry" />
        </mxCell>
        <mxCell id="y7Lo6_qIOmENLzMQSb0R-52" value="" style="line;strokeWidth=1;fillColor=none;align=left;verticalAlign=middle;spacingTop=-1;spacingLeft=3;spacingRight=3;rotatable=0;labelPosition=right;points=[];portConstraint=eastwest;strokeColor=inherit;" vertex="1" parent="y7Lo6_qIOmENLzMQSb0R-50">
          <mxGeometry y="52" width="160" height="8" as="geometry" />
        </mxCell>
        <mxCell id="y7Lo6_qIOmENLzMQSb0R-53" value="+ method(type): type" style="text;strokeColor=none;fillColor=none;align=left;verticalAlign=top;spacingLeft=4;spacingRight=4;overflow=hidden;rotatable=0;points=[[0,0.5],[1,0.5]];portConstraint=eastwest;whiteSpace=wrap;html=1;" vertex="1" parent="y7Lo6_qIOmENLzMQSb0R-50">
          <mxGeometry y="60" width="160" height="26" as="geometry" />
        </mxCell>
        <mxCell id="y7Lo6_qIOmENLzMQSb0R-54" value="" style="edgeStyle=entityRelationEdgeStyle;fontSize=12;html=1;endArrow=ERoneToMany;startArrow=ERmandOne;rounded=0;exitX=1;exitY=0.077;exitDx=0;exitDy=0;entryX=0;entryY=0.5;entryDx=0;entryDy=0;exitPerimeter=0;" edge="1" parent="1" source="y7Lo6_qIOmENLzMQSb0R-11" target="y7Lo6_qIOmENLzMQSb0R-23">
          <mxGeometry width="100" height="100" relative="1" as="geometry">
            <mxPoint x="360" y="350" as="sourcePoint" />
            <mxPoint x="460" y="250" as="targetPoint" />
            <Array as="points">
              <mxPoint x="310" y="110" />
              <mxPoint x="260" y="100" />
              <mxPoint x="280" y="100" />
            </Array>
          </mxGeometry>
        </mxCell>
        <mxCell id="y7Lo6_qIOmENLzMQSb0R-55" value="" style="edgeStyle=entityRelationEdgeStyle;fontSize=12;html=1;endArrow=ERmandOne;startArrow=ERmandOne;rounded=0;dashed=1;entryX=-0.007;entryY=0.991;entryDx=0;entryDy=0;entryPerimeter=0;" edge="1" parent="1" target="y7Lo6_qIOmENLzMQSb0R-27">
          <mxGeometry width="100" height="100" relative="1" as="geometry">
            <mxPoint x="202" y="202" as="sourcePoint" />
            <mxPoint x="316" y="207" as="targetPoint" />
          </mxGeometry>
        </mxCell>
        <mxCell id="y7Lo6_qIOmENLzMQSb0R-56" value="" style="edgeStyle=entityRelationEdgeStyle;fontSize=12;html=1;endArrow=ERoneToMany;startArrow=ERmandOne;rounded=0;entryX=1;entryY=0.25;entryDx=0;entryDy=0;dashed=1;" edge="1" parent="1" target="y7Lo6_qIOmENLzMQSb0R-18">
          <mxGeometry width="100" height="100" relative="1" as="geometry">
            <mxPoint x="200" y="228.5" as="sourcePoint" />
            <mxPoint x="200" y="410" as="targetPoint" />
            <Array as="points">
              <mxPoint x="240" y="390" />
            </Array>
          </mxGeometry>
        </mxCell>
        <mxCell id="y7Lo6_qIOmENLzMQSb0R-57" value="" style="edgeStyle=entityRelationEdgeStyle;fontSize=12;html=1;endArrow=ERoneToMany;startArrow=ERmandOne;rounded=0;entryX=0.003;entryY=0.181;entryDx=0;entryDy=0;dashed=1;exitX=0.997;exitY=0.054;exitDx=0;exitDy=0;entryPerimeter=0;exitPerimeter=0;" edge="1" parent="1" source="y7Lo6_qIOmENLzMQSb0R-13" target="y7Lo6_qIOmENLzMQSb0R-14">
          <mxGeometry width="100" height="100" relative="1" as="geometry">
            <mxPoint x="200" y="233.00999999999976" as="sourcePoint" />
            <mxPoint x="396" y="410" as="targetPoint" />
            <Array as="points">
              <mxPoint x="236" y="357" />
              <mxPoint x="316" y="310" />
              <mxPoint x="316" y="320" />
              <mxPoint x="346" y="310" />
              <mxPoint x="396" y="320" />
            </Array>
          </mxGeometry>
        </mxCell>
        <mxCell id="y7Lo6_qIOmENLzMQSb0R-58" value="" style="edgeStyle=entityRelationEdgeStyle;fontSize=12;html=1;endArrow=ERoneToMany;startArrow=ERmandOne;rounded=0;exitX=1;exitY=0;exitDx=0;exitDy=0;entryX=1;entryY=0.5;entryDx=0;entryDy=0;" edge="1" parent="1" source="y7Lo6_qIOmENLzMQSb0R-30" target="y7Lo6_qIOmENLzMQSb0R-23">
          <mxGeometry width="100" height="100" relative="1" as="geometry">
            <mxPoint x="650" y="150" as="sourcePoint" />
            <mxPoint x="948" y="59" as="targetPoint" />
            <Array as="points">
              <mxPoint x="760" y="82" />
              <mxPoint x="860" y="70" />
              <mxPoint x="710" y="72" />
              <mxPoint x="730" y="72" />
            </Array>
          </mxGeometry>
        </mxCell>
        <mxCell id="y7Lo6_qIOmENLzMQSb0R-59" value="" style="edgeStyle=entityRelationEdgeStyle;fontSize=12;html=1;endArrow=ERoneToMany;startArrow=ERmandOne;rounded=0;entryX=-0.019;entryY=0.174;entryDx=0;entryDy=0;entryPerimeter=0;exitX=0.994;exitY=0.116;exitDx=0;exitDy=0;exitPerimeter=0;" edge="1" parent="1" source="y7Lo6_qIOmENLzMQSb0R-14" target="y7Lo6_qIOmENLzMQSb0R-34">
          <mxGeometry width="100" height="100" relative="1" as="geometry">
            <mxPoint x="510" y="460" as="sourcePoint" />
            <mxPoint x="580" y="210" as="targetPoint" />
          </mxGeometry>
        </mxCell>
        <mxCell id="y7Lo6_qIOmENLzMQSb0R-60" value="" style="edgeStyle=entityRelationEdgeStyle;fontSize=12;html=1;endArrow=ERoneToMany;startArrow=ERmandOne;rounded=0;entryX=0.5;entryY=0;entryDx=0;entryDy=0;exitX=-0.019;exitY=0.154;exitDx=0;exitDy=0;exitPerimeter=0;" edge="1" parent="1" source="y7Lo6_qIOmENLzMQSb0R-31" target="y7Lo6_qIOmENLzMQSb0R-34">
          <mxGeometry width="100" height="100" relative="1" as="geometry">
            <mxPoint x="800" y="310" as="sourcePoint" />
            <mxPoint x="848" y="185" as="targetPoint" />
          </mxGeometry>
        </mxCell>
        <mxCell id="y7Lo6_qIOmENLzMQSb0R-61" value="" style="edgeStyle=entityRelationEdgeStyle;fontSize=12;html=1;endArrow=ERoneToMany;startArrow=ERmandOne;rounded=0;exitX=1;exitY=0.5;exitDx=0;exitDy=0;entryX=0;entryY=0.5;entryDx=0;entryDy=0;" edge="1" parent="1" source="y7Lo6_qIOmENLzMQSb0R-31" target="y7Lo6_qIOmENLzMQSb0R-43">
          <mxGeometry width="100" height="100" relative="1" as="geometry">
            <mxPoint x="1050" y="70" as="sourcePoint" />
            <mxPoint x="1050" y="-120" as="targetPoint" />
            <Array as="points">
              <mxPoint x="960" y="-7" />
              <mxPoint x="1060" y="-19" />
              <mxPoint x="910" y="-17" />
              <mxPoint x="930" y="-17" />
            </Array>
          </mxGeometry>
        </mxCell>
        <mxCell id="y7Lo6_qIOmENLzMQSb0R-62" value="" style="edgeStyle=entityRelationEdgeStyle;fontSize=12;html=1;endArrow=ERoneToMany;startArrow=ERmandOne;rounded=0;exitX=1;exitY=0.25;exitDx=0;exitDy=0;entryX=-0.019;entryY=-0.154;entryDx=0;entryDy=0;entryPerimeter=0;" edge="1" parent="1" source="y7Lo6_qIOmENLzMQSb0R-26" target="y7Lo6_qIOmENLzMQSb0R-51">
          <mxGeometry width="100" height="100" relative="1" as="geometry">
            <mxPoint x="515" y="198.5" as="sourcePoint" />
            <mxPoint x="705" y="90" as="targetPoint" />
            <Array as="points">
              <mxPoint x="425" y="121.5" />
              <mxPoint x="525" y="109.5" />
              <mxPoint x="375" y="111.5" />
              <mxPoint x="395" y="111.5" />
            </Array>
          </mxGeometry>
        </mxCell>
        <mxCell id="y7Lo6_qIOmENLzMQSb0R-63" value="" style="edgeStyle=entityRelationEdgeStyle;fontSize=12;html=1;endArrow=ERoneToMany;startArrow=ERmandOne;rounded=0;exitX=-0.025;exitY=0.174;exitDx=0;exitDy=0;entryX=1.013;entryY=0.093;entryDx=0;entryDy=0;entryPerimeter=0;exitPerimeter=0;" edge="1" parent="1" source="y7Lo6_qIOmENLzMQSb0R-30" target="y7Lo6_qIOmENLzMQSb0R-50">
          <mxGeometry width="100" height="100" relative="1" as="geometry">
            <mxPoint x="770" y="80" as="sourcePoint" />
            <mxPoint x="770" y="-110" as="targetPoint" />
            <Array as="points">
              <mxPoint x="680" y="3" />
              <mxPoint x="780" y="-9" />
              <mxPoint x="710" y="120" />
              <mxPoint x="630" y="-7" />
              <mxPoint x="650" y="-7" />
            </Array>
          </mxGeometry>
        </mxCell>
        <mxCell id="y7Lo6_qIOmENLzMQSb0R-64" value="" style="edgeStyle=entityRelationEdgeStyle;fontSize=12;html=1;endArrow=ERoneToMany;startArrow=ERmandOne;rounded=0;exitX=1;exitY=0.25;exitDx=0;exitDy=0;entryX=0;entryY=0.25;entryDx=0;entryDy=0;dashed=1;" edge="1" parent="1" source="y7Lo6_qIOmENLzMQSb0R-14" target="y7Lo6_qIOmENLzMQSb0R-38">
          <mxGeometry width="100" height="100" relative="1" as="geometry">
            <mxPoint x="570" y="490" as="sourcePoint" />
            <mxPoint x="570" y="300" as="targetPoint" />
            <Array as="points">
              <mxPoint x="480" y="413" />
              <mxPoint x="580" y="401" />
              <mxPoint x="430" y="403" />
              <mxPoint x="450" y="403" />
            </Array>
          </mxGeometry>
        </mxCell>
        <mxCell id="y7Lo6_qIOmENLzMQSb0R-65" value="" style="edgeStyle=entityRelationEdgeStyle;fontSize=12;html=1;endArrow=ERoneToMany;startArrow=ERmandOne;rounded=0;exitX=1;exitY=0.25;exitDx=0;exitDy=0;entryX=1;entryY=-0.115;entryDx=0;entryDy=0;entryPerimeter=0;dashed=1;" edge="1" parent="1" source="y7Lo6_qIOmENLzMQSb0R-38" target="y7Lo6_qIOmENLzMQSb0R-33">
          <mxGeometry width="100" height="100" relative="1" as="geometry">
            <mxPoint x="840" y="340" as="sourcePoint" />
            <mxPoint x="840" y="150" as="targetPoint" />
            <Array as="points">
              <mxPoint x="750" y="263" />
              <mxPoint x="850" y="251" />
              <mxPoint x="700" y="253" />
              <mxPoint x="720" y="253" />
            </Array>
          </mxGeometry>
        </mxCell>
      </root>
    </mxGraphModel>
  </diagram>
</mxfile>
